<svg width="37" height="37" viewBox="0 0 37 37" fill="none" xmlns="http://www.w3.org/2000/svg">
<path d="M18.5 3.46875C12.7549 3.46875 8.09375 7.90514 8.09375 13.3691C8.09375 19.6563 15.0312 29.6195 17.5786 33.0608C17.6844 33.2061 17.8229 33.3243 17.9831 33.4058C18.1432 33.4873 18.3203 33.5298 18.5 33.5298C18.6797 33.5298 18.8568 33.4873 19.0169 33.4058C19.1771 33.3243 19.3156 33.2061 19.4214 33.0608C21.9688 29.621 28.9062 19.6613 28.9062 13.3691C28.9062 7.90514 24.2451 3.46875 18.5 3.46875Z" stroke="#9168A4" stroke-width="2.3" stroke-linecap="round" stroke-linejoin="round"/>
<path d="M18.5 17.3438C20.4157 17.3438 21.9688 15.7907 21.9688 13.875C21.9688 11.9593 20.4157 10.4062 18.5 10.4062C16.5843 10.4062 15.0312 11.9593 15.0312 13.875C15.0312 15.7907 16.5843 17.3438 18.5 17.3438Z" stroke="#9168A4" stroke-width="2.3" stroke-linecap="round" stroke-linejoin="round"/>
</svg>
