<svg width="37" height="37" viewBox="0 0 37 37" fill="none" xmlns="http://www.w3.org/2000/svg">
<path d="M18.5 3.46875C15.5271 3.46875 12.621 4.35032 10.1491 6.00197C7.67722 7.65363 5.75062 10.0012 4.61294 12.7478C3.47526 15.4944 3.17759 18.5167 3.75758 21.4325C4.33756 24.3482 5.76915 27.0265 7.87131 29.1287C9.97347 31.2309 12.6518 32.6624 15.5676 33.2424C18.4833 33.8224 21.5056 33.5247 24.2522 32.3871C26.9988 31.2494 29.3464 29.3228 30.998 26.8509C32.6497 24.379 33.5313 21.4729 33.5313 18.5C33.527 14.5148 31.9421 10.6939 29.1241 7.87595C26.3061 5.05795 22.4853 3.47296 18.5 3.46875ZM18.5 31.2188C15.9845 31.2188 13.5254 30.4728 11.4338 29.0753C9.34226 27.6777 7.71207 25.6913 6.74941 23.3673C5.78676 21.0432 5.53489 18.4859 6.02564 16.0187C6.5164 13.5515 7.72774 11.2852 9.50649 9.50649C11.2852 7.72774 13.5515 6.51639 16.0187 6.02564C18.4859 5.53488 21.0432 5.78676 23.3673 6.74941C25.6913 7.71206 27.6777 9.34225 29.0753 11.4338C30.4728 13.5254 31.2188 15.9845 31.2188 18.5C31.2149 21.872 29.8737 25.1049 27.4893 27.4893C25.1049 29.8737 21.8721 31.2149 18.5 31.2188ZM27.75 18.5C27.75 18.8067 27.6282 19.1008 27.4114 19.3176C27.1945 19.5344 26.9004 19.6562 26.5938 19.6562H18.5C18.1933 19.6562 17.8993 19.5344 17.6824 19.3176C17.4656 19.1008 17.3438 18.8067 17.3438 18.5V10.4062C17.3438 10.0996 17.4656 9.8055 17.6824 9.58866C17.8993 9.37182 18.1933 9.25 18.5 9.25C18.8067 9.25 19.1008 9.37182 19.3176 9.58866C19.5344 9.8055 19.6563 10.0996 19.6563 10.4062V17.3438H26.5938C26.9004 17.3438 27.1945 17.4656 27.4114 17.6824C27.6282 17.8992 27.75 18.1933 27.75 18.5Z" fill="#9168A4"/>
</svg>
